<svg xmlns="http://www.w3.org/2000/svg" width="156" height="156" viewBox="0 0 156 156">
    <g fill="none" fill-rule="evenodd">
        <path d="M0 0H156V156H0z"/>
        <g fill="#B8B8B8">
            <path d="M8.775 10.748c4.846 0 8.775 3.929 8.775 8.775 0 4.847-3.929 8.775-8.775 8.775S0 24.37 0 19.523c0-4.846 3.929-8.775 8.775-8.775zm0 5.85c-1.615 0-2.925 1.31-2.925 2.925 0 1.616 1.31 2.925 2.925 2.925 1.615 0 2.925-1.31 2.925-2.925 0-1.615-1.31-2.925-2.925-2.925zM46.605 10.748c4.846 0 8.775 3.929 8.775 8.775 0 4.847-3.929 8.775-8.775 8.775s-8.775-3.928-8.775-8.775c0-4.846 3.929-8.775 8.775-8.775zm0 5.85c-1.615 0-2.925 1.31-2.925 2.925 0 1.616 1.31 2.925 2.925 2.925 1.615 0 2.925-1.31 2.925-2.925 0-1.615-1.31-2.925-2.925-2.925z" transform="translate(50.7 104.91)"/>
            <path fill-rule="nonzero" d="M40.746 20.298l5.533-5.498L30.215-1.366c-1.508-1.517-3.95-1.532-5.477-.054l-.084.083-15.749 16.18 5.59 5.44L27.477 6.947l13.269 13.352z" transform="translate(50.7 104.91)"/>
        </g>
        <path fill="#B8B8B8" fill-rule="nonzero" d="M105.3 52.455c1.584 0 2.874 1.259 2.923 2.83l.002.095v17.55c0 1.615-1.31 2.925-2.925 2.925-1.584 0-2.874-1.259-2.923-2.83l-.002-.095V58.305h-47.97V72.93c0 1.584-1.259 2.874-2.83 2.923l-.095.002c-1.584 0-2.874-1.259-2.923-2.83l-.002-.095V55.38c0-1.584 1.259-2.874 2.83-2.923l.095-.002h53.82z"/>
        <path fill="#003E78" fill-rule="nonzero" d="M139.62 68.25c4.846 0 8.775 3.929 8.775 8.775 0 4.798-3.85 8.696-8.63 8.774l-.145.001H16.77c-4.846 0-8.775-3.929-8.775-8.775 0-4.798 3.85-8.696 8.63-8.774l.145-.001h122.85z"/>
        <path fill="#2C98FF" fill-rule="nonzero" d="M129.376 42.064c2.285-2.284 5.989-2.285 8.273 0 2.252 2.25 2.285 5.88.1 8.171l-.099.102-55.364 55.375c-2.273 2.273-5.946 2.282-8.23.044l-.1-.1-15.748-16.18c-2.254-2.315-2.204-6.019.112-8.272 2.28-2.22 5.91-2.205 8.172.01l.1.102 11.612 11.93 51.172-51.182z"/>
    </g>
</svg>
